HIERARCHY
ROOT SpineBase
{
  OFFSET 0.000000 0.000000 0.000000
  CHANNELS 6 Xposition Yposition Zposition Zrotation Xrotation Yrotation
  JOINT SpineMid
  {
    OFFSET -0.000000 35.605316 0.000000
    CHANNELS 3 Zrotation Xrotation Yrotation
    JOINT SpineShoulder
    {
      OFFSET -0.153506 26.385071 -0.653522
      CHANNELS 3 Zrotation Xrotation Yrotation
      JOINT Neck
      {
        OFFSET -0.102532 8.683985 -0.557122
        CHANNELS 3 Zrotation Xrotation Yrotation
        JOINT Head
        {
          OFFSET -6.856115 9.748843 5.882658
          CHANNELS 3 Zrotation Xrotation Yrotation
          End Site
          {
            OFFSET 0 0 0
          }
        }
      }
      JOINT ShoulderLeft
      {
        OFFSET -12.501395 -10.251372 -16.917530
        CHANNELS 3 Zrotation Xrotation Yrotation
        JOINT ElbowLeft
        {
          OFFSET 4.798401 -27.625056 -4.706329
          CHANNELS 3 Zrotation Xrotation Yrotation
          JOINT WristLeft
          {
            OFFSET -1.827898 -22.458228 7.740916
            CHANNELS 3 Zrotation Xrotation Yrotation
            JOINT HandLeft
            {
              OFFSET 3.768790 -4.172622 2.222582
              CHANNELS 3 Zrotation Xrotation Yrotation
              JOINT HandTipLeft
              {
                OFFSET 0.427870 -5.090113 -1.407696
                CHANNELS 3 Zrotation Xrotation Yrotation
                End Site
                {
                  OFFSET 0 0 0
                }
              }
              JOINT ThumbLeft
              {
                OFFSET -0.914460 4.449141 -1.252061
                CHANNELS 3 Zrotation Xrotation Yrotation
                End Site
                {
                  OFFSET 0 0 0
                }
              }
            }
          }
        }
      }
      JOINT ShoulderRight
      {
        OFFSET 5.529002 -4.832043 -14.728511
        CHANNELS 3 Zrotation Xrotation Yrotation
        JOINT ElbowRight
        {
          OFFSET 2.314107 -27.227304 -7.263796
          CHANNELS 3 Zrotation Xrotation Yrotation
          JOINT WristRight
          {
            OFFSET -6.615012 -19.824254 -0.751581
            CHANNELS 3 Zrotation Xrotation Yrotation
            JOINT HandRight
            {
              OFFSET -0.035017 -6.111309 4.553109
              CHANNELS 3 Zrotation Xrotation Yrotation
              JOINT HandTipRight
              {
                OFFSET -1.240172 -6.551250 -1.200800
                CHANNELS 3 Zrotation Xrotation Yrotation
                End Site
                {
                  OFFSET 0 0 0
                }
              }
              JOINT ThumbRight
              {
                OFFSET -5.463832 1.935628 2.080247
                CHANNELS 3 Zrotation Xrotation Yrotation
                End Site
                {
                  OFFSET 0 0 0
                }
              }
            }
          }
        }
      }
    }
  }
  JOINT HipLeft
  {
    OFFSET -7.955652 -0.281654 -2.803669
    CHANNELS 3 Zrotation Xrotation Yrotation
    JOINT KneeLeft
    {
      OFFSET 1.174498 -28.375179 13.719580
      CHANNELS 3 Zrotation Xrotation Yrotation
      JOINT AnkleLeft
      {
        OFFSET 11.363798 -39.463117 4.468811
        CHANNELS 3 Zrotation Xrotation Yrotation
        JOINT FootLeft
        {
          OFFSET -2.545845 -4.549440 -7.013424
          CHANNELS 3 Zrotation Xrotation Yrotation
          End Site
          {
            OFFSET 0 0 0
          }
        }
      }
    }
  }
  JOINT HipRight
  {
    OFFSET 8.007096 1.762750 -4.984476
    CHANNELS 3 Zrotation Xrotation Yrotation
    JOINT KneeRight
    {
      OFFSET -1.058836 -31.175678 -4.617509
      CHANNELS 3 Zrotation Xrotation Yrotation
      JOINT AnkleRight
      {
        OFFSET 6.197694 -36.608966 4.322380
        CHANNELS 3 Zrotation Xrotation Yrotation
        JOINT FootRight
        {
          OFFSET -3.410830 -7.200209 -3.035063
          CHANNELS 3 Zrotation Xrotation Yrotation
          End Site
          {
            OFFSET 0 0 0
          }
        }
      }
    }
  }
}
MOTION
Frames: 15
Frame Time: 0.033333
-9.329512 76.729768 332.807411 -0.710066 1.107560 13.980530 0.026195 -0.094568 -13.984155 -0.451432 0.095422 -0.050919 2.009117 -1.074773 -0.422247 0.000000 0.000000 0.000000 1.114438 -1.116415 0.069124 -0.000000 0.000000 0.000000 -10.756695 1.450425 -4.731667 0.635197 -21.421364 4.535699 0.000000 0.000000 0.000000 0.000000 0.000000 0.000000 3.528193 1.154215 -0.380628 -3.376892 -0.981844 -0.026043 -1.575803 2.242831 -1.517404 0.042503 -10.733191 3.596180 0.000000 0.000000 0.000000 0.000000 0.000000 0.000000 -0.262551 -0.504491 -14.365168 3.218215 9.236397 3.315399 -6.490587 -36.620300 22.437457 0.000000 0.000000 0.000000 3.922704 1.925015 -14.510930 1.238744 1.265559 1.856924 0.593501 1.958597 -6.604968 0.000000 0.000000 0.000000
-9.713206 77.193630 333.281471 -1.286255 0.552434 17.940659 0.204593 0.005948 -17.956241 -0.805585 -0.088831 -0.097976 1.900147 -0.528633 0.124379 0.000000 0.000000 0.000000 1.900147 -0.528633 0.124379 -0.000000 0.000000 0.000000 -11.799220 3.135913 -3.529941 0.080878 -23.126992 3.372431 0.000000 0.000000 0.000000 0.000000 0.000000 0.000000 4.177001 1.461077 -0.331297 -3.806157 -0.598400 -0.049032 -1.622085 3.682592 -1.943972 -0.536551 -14.607188 4.512869 0.000000 0.000000 0.000000 0.000000 0.000000 0.000000 0.879961 1.070056 -18.228320 3.490587 9.086390 3.619866 -6.410950 -37.260830 20.057797 0.000000 0.000000 0.000000 5.005177 1.710752 -18.514487 1.367533 1.548615 1.949569 0.669505 1.790043 -6.862388 0.000000 0.000000 0.000000
-10.148515 77.666943 333.844893 -1.813918 0.077400 21.712460 0.091507 -0.027512 -21.753096 -1.149048 -0.292530 -0.152591 1.788740 -0.999582 -0.027892 0.000000 0.000000 0.000000 2.867289 0.215367 0.181111 -0.000000 0.000000 0.000000 -12.598819 5.165584 -1.710089 -3.541136 -27.643832 0.884832 0.000000 0.000000 0.000000 0.000000 0.000000 0.000000 4.587292 1.774645 -0.175134 -3.811612 0.058320 -0.187175 -1.849972 3.904991 -2.478911 0.851299 -16.284535 5.397180 0.000000 0.000000 0.000000 0.000000 0.000000 0.000000 2.224642 2.282910 -21.871107 3.587918 9.031419 3.860218 -5.832423 -39.111480 18.514788 0.000000 0.000000 0.000000 5.890797 1.452525 -22.309740 1.759144 1.734459 2.044070 0.485114 1.388746 -6.953824 0.000000 0.000000 0.000000
-10.523418 78.043637 334.260291 -2.719903 -0.686024 24.526571 -0.128150 -0.040976 -24.618820 -1.345332 -0.411642 -0.212727 1.669028 -1.099035 0.132139 0.000000 0.000000 0.000000 4.159888 1.206151 0.237489 -0.000000 0.000000 0.000000 -15.083611 6.710393 -1.323329 -5.009083 -31.965975 -0.327267 0.000000 0.000000 0.000000 0.000000 0.000000 0.000000 5.569365 2.431522 -0.079593 -4.370768 0.715927 -0.291497 -2.728010 6.115176 -3.670964 0.782579 -20.236633 7.051348 0.000000 0.000000 0.000000 0.000000 0.000000 0.000000 4.061503 3.168517 -24.565496 3.322589 8.861899 3.928892 -4.775897 -40.163582 16.791505 0.000000 0.000000 0.000000 7.054601 1.348159 -25.143127 2.358316 1.896274 2.116069 0.119018 0.974136 -6.959594 0.000000 0.000000 0.000000
-10.817882 78.505212 334.453925 -3.867223 -1.581059 27.499534 -0.341251 -0.043140 -27.668905 -1.379558 -0.473779 -0.269559 1.465357 -0.804698 0.635912 0.000000 0.000000 0.000000 5.517158 2.282577 0.271377 -0.000000 0.000000 0.000000 -18.007249 7.792903 -1.687896 -4.890414 -35.980038 -0.800183 0.000000 0.000000 0.000000 0.000000 0.000000 0.000000 6.685314 3.175676 -0.020390 -5.020050 1.217412 -0.319023 -4.223242 9.393403 -5.322870 2.690313 -24.245640 9.256258 0.000000 0.000000 0.000000 0.000000 0.000000 0.000000 6.357398 3.964361 -27.433950 2.775039 8.133641 3.843113 -3.750321 -40.939736 16.201354 0.000000 0.000000 0.000000 8.254388 0.782954 -28.109022 3.049380 2.435844 2.132245 -0.295664 0.713651 -7.020337 0.000000 0.000000 0.000000
-10.977261 78.851040 334.422193 -4.904512 -2.354644 29.992329 -0.524297 -0.047548 -30.245194 -1.420571 -0.626625 -0.328287 0.905227 -1.163870 0.809755 0.000000 0.000000 0.000000 6.733989 3.332391 0.276088 -0.000000 0.000000 0.000000 -20.692780 8.655289 -2.173724 -5.001485 -38.973441 -1.041699 0.000000 0.000000 0.000000 0.000000 0.000000 0.000000 8.067965 3.953853 -0.111446 -6.268366 1.323369 -0.138808 -4.986762 13.720941 -6.567398 6.480601 -29.986162 11.800634 0.000000 0.000000 0.000000 0.000000 0.000000 0.000000 8.389182 4.446265 -29.874630 2.212209 7.100672 3.650641 -2.903270 -40.477031 15.566270 0.000000 0.000000 0.000000 8.983238 0.046283 -30.557194 3.945144 3.143017 2.082079 -0.692111 0.628590 -7.157665 0.000000 0.000000 0.000000
-11.033378 78.948757 334.158399 -6.101622 -3.258598 30.872701 -1.177595 -0.092042 -31.254482 -1.055746 -0.465435 -0.371197 -0.053713 -1.922905 0.959703 0.000000 0.000000 0.000000 6.634415 5.436299 0.795124 3.498493 -1.602079 0.407772 -25.240289 8.691257 -5.428343 2.590164 -39.920998 2.846304 0.000000 0.000000 0.000000 0.000000 0.000000 0.000000 8.894870 4.478028 -0.022360 -6.872917 1.789872 -0.059343 -6.388198 20.928466 -8.038106 9.846628 -38.657977 15.317191 0.000000 0.000000 0.000000 0.000000 0.000000 0.000000 10.240223 4.594578 -30.745380 1.499972 6.087351 3.284965 -1.229101 -41.258863 16.760833 0.000000 0.000000 0.000000 9.734358 -0.361359 -31.417032 4.993156 3.797134 1.981332 -1.093274 0.875016 -7.413136 0.000000 0.000000 0.000000
-10.899311 78.709147 333.572357 -7.313057 -4.091676 29.740351 -1.782525 -0.167989 -30.265747 -0.608888 -0.241776 -0.410068 -1.258675 -3.017794 1.035916 0.000000 0.000000 0.000000 8.171346 6.230086 0.668433 2.752641 -1.167699 0.288122 -28.845024 6.626612 -10.823846 12.738305 -35.925468 10.392261 0.000000 0.000000 0.000000 0.000000 0.000000 0.000000 9.050932 4.535873 0.241481 -6.515625 2.670495 -0.108148 -9.178480 25.123063 -10.149295 14.395850 -41.368114 19.550101 0.000000 0.000000 0.000000 0.000000 0.000000 0.000000 12.115983 4.549449 -29.438681 -0.156057 4.498865 2.362772 1.148416 -40.723928 18.188342 0.000000 0.000000 0.000000 10.232516 -0.294757 -30.267163 6.335411 4.392137 1.823442 -1.430129 0.914267 -7.582998 0.000000 0.000000 0.000000
-10.713145 78.501909 332.943520 -8.591976 -4.954931 26.440478 -1.906011 -0.299055 -27.121598 -0.195287 -0.091626 -0.447282 -2.363735 -4.521270 0.538370 0.000000 0.000000 0.000000 11.037460 3.430843 -0.517652 -2.697329 1.202077 0.175819 -28.639639 5.554675 -14.240951 20.599911 -32.435855 15.724664 0.000000 0.000000 0.000000 0.000000 0.000000 0.000000 9.485383 4.545847 0.314493 -6.389697 3.567994 -0.080020 -12.384637 28.186276 -12.215425 20.768533 -42.678131 24.719926 0.000000 0.000000 0.000000 0.000000 0.000000 0.000000 14.176325 5.005626 -25.926064 -2.437040 2.392262 1.060518 3.606416 -39.409478 19.988678 0.000000 0.000000 0.000000 11.169056 0.595739 -27.062421 7.410000 4.479845 1.748428 -1.674388 0.805415 -7.660131 0.000000 0.000000 0.000000
-10.449343 78.252698 332.239997 -10.021797 -5.922049 24.326499 -1.644266 -0.269283 -25.182707 0.026400 0.060986 -0.482288 -4.724509 -6.982629 0.119964 0.000000 0.000000 0.000000 14.823199 2.702985 -1.511993 -8.801362 4.107177 0.057558 -31.273571 3.453311 -19.569089 31.161695 -29.033792 20.826846 0.000000 0.000000 0.000000 0.000000 0.000000 0.000000 8.879474 3.957190 0.747606 -5.202525 5.036549 -0.312303 -14.637562 29.316981 -13.818040 23.651987 -41.560949 27.443668 0.000000 0.000000 0.000000 0.000000 0.000000 0.000000 16.299144 5.092535 -23.690750 -4.626599 1.313635 -0.012164 5.831626 -38.853645 21.705304 0.000000 0.000000 0.000000 11.564368 1.197221 -24.967443 8.911323 5.084199 1.507062 -1.905301 0.498022 -7.629391 0.000000 0.000000 0.000000
-10.187270 77.942083 331.524559 -11.381874 -6.806438 22.994564 -1.585016 -0.299985 -24.048691 -0.009800 0.024089 -0.542741 -7.926824 -9.734189 -0.126257 0.000000 0.000000 0.000000 19.460532 4.086993 -2.486043 -16.005654 7.083065 -0.542306 -33.447373 1.619294 -23.692355 39.378612 -26.052916 23.905286 0.000000 0.000000 0.000000 0.000000 0.000000 0.000000 7.509694 3.337610 1.530937 -2.895257 6.836663 -0.854795 -16.675659 28.728314 -15.536730 27.386613 -39.921234 30.390021 0.000000 0.000000 0.000000 0.000000 0.000000 0.000000 18.660389 4.952349 -22.131572 -7.177173 0.732453 -1.102770 8.584981 -39.080612 22.906074 0.000000 0.000000 0.000000 12.640980 1.059172 -23.804649 9.343340 5.950645 1.350058 -1.822011 0.109760 -7.658099 0.000000 0.000000 0.000000
-9.975332 77.633492 330.552770 -12.709658 -7.228912 21.849738 -1.355253 -0.358234 -23.073714 -0.024442 0.037907 -0.586413 -11.993339 -13.499001 -0.919247 0.000000 0.000000 0.000000 24.862060 6.287800 -3.605651 -24.257629 9.390178 -1.622275 -34.148211 0.684385 -24.638183 47.878497 -30.492197 24.574782 0.000000 0.000000 0.000000 0.000000 0.000000 0.000000 5.424750 2.315149 2.512176 0.136681 8.350386 -1.659210 -18.754540 27.196812 -17.372680 28.783050 -36.189223 31.749298 0.000000 0.000000 0.000000 0.000000 0.000000 0.000000 21.488445 4.936538 -20.482207 -10.114803 -1.208204 -2.769429 11.555952 -38.735583 24.216681 0.000000 0.000000 0.000000 12.825943 0.108475 -22.658675 10.217328 7.432637 0.969333 -1.891390 -0.451499 -7.488540 0.000000 0.000000 0.000000
-9.639548 77.405888 329.651541 -13.692525 -7.417714 22.514258 -1.342482 -0.399817 -23.863041 -0.135110 -0.099802 -0.643263 -15.420821 -16.336066 -1.507171 0.000000 0.000000 0.000000 30.513062 10.262912 -4.925437 -32.727520 9.692337 -4.091183 -36.367780 3.543983 -20.014981 53.112972 -42.704544 24.509123 0.000000 0.000000 0.000000 0.000000 0.000000 0.000000 2.579943 0.954348 3.660387 3.949534 10.093524 -2.743267 -20.992199 25.520975 -19.423128 30.534693 -31.320733 33.106857 0.000000 0.000000 0.000000 0.000000 0.000000 0.000000 22.944694 5.078985 -21.097473 -11.097650 -3.412035 -3.641517 13.337970 -38.565576 26.004022 0.000000 0.000000 0.000000 12.529872 -1.426907 -23.241674 11.081307 9.020932 0.525150 -2.075072 -1.001440 -7.230442 0.000000 0.000000 0.000000
-9.176432 77.300811 328.937114 -14.498831 -7.806931 23.755672 -1.305792 -0.392254 -25.234609 -0.163448 -0.209391 -0.691410 -18.287273 -18.216274 -1.726481 0.000000 0.000000 0.000000 31.049425 13.682512 -4.913606 -32.418566 12.334307 -5.691225 -39.342281 4.243580 -17.399093 53.862251 -42.806748 23.127907 0.000000 0.000000 0.000000 0.000000 0.000000 0.000000 0.552046 0.228413 4.493043 6.397086 11.044473 -3.472678 -21.994656 23.904083 -20.803811 32.154088 -28.645472 34.050060 0.000000 0.000000 0.000000 0.000000 0.000000 0.000000 23.265833 5.627441 -22.873671 -10.313068 -5.435453 -3.673482 13.552233 -37.778249 27.596422 0.000000 0.000000 0.000000 12.370186 -2.554382 -24.477167 11.778970 10.189351 0.157063 -2.148581 -1.153860 -7.170445 0.000000 0.000000 0.000000
-8.624742 77.248521 328.247758 -15.153141 -8.146293 25.982811 -1.262502 -0.356400 -27.573558 -0.208462 -0.359607 -0.739847 -21.036594 -19.765047 -1.710323 0.000000 0.000000 0.000000 29.635405 18.045852 -4.118778 -28.700824 14.983775 -7.518932 -41.817491 4.217645 -13.733961 50.480860 -39.278087 20.247959 0.000000 0.000000 0.000000 0.000000 0.000000 0.000000 -1.395384 -0.328328 5.284917 8.515648 11.646151 -4.128180 -22.693038 22.379885 -22.036114 34.137281 -26.770696 34.979363 0.000000 0.000000 0.000000 0.000000 0.000000 0.000000 22.962097 6.241622 -25.891027 -8.292800 -7.564310 -3.165986 12.691660 -36.667035 29.397182 0.000000 0.000000 0.000000 11.965842 -3.926268 -26.693818 12.381056 11.383669 -0.230157 -2.203305 -1.161149 -7.146237 0.000000 0.000000 0.000000
